<?xml version="1.0" standalone="no"?>
<!DOCTYPE svg PUBLIC "-//W3C//DTD SVG 20010904//EN"
 "http://www.w3.org/TR/2001/REC-SVG-20010904/DTD/svg10.dtd">
<svg version="1.0" xmlns="http://www.w3.org/2000/svg"
 width="791.000000pt" height="779.000000pt" viewBox="0 0 791.000000 779.000000"
 preserveAspectRatio="xMidYMid meet">

<g transform="translate(0.000000,779.000000) scale(0.100000,-0.100000)"
fill="#000000" stroke="none">
<path d="M3605 7779 c-665 -58 -1285 -272 -1825 -632 -432 -288 -849 -705
-1137 -1137 -331 -499 -538 -1061 -620 -1685 -21 -166 -24 -646 -5 -810 105
-881 492 -1665 1142 -2316 312 -312 644 -553 1038 -752 499 -252 989 -393
1530 -438 184 -15 613 -7 782 16 873 115 1644 481 2243 1065 653 636 1024
1408 1129 2350 16 147 16 610 0 760 -50 459 -168 888 -354 1285 -209 444 -462
803 -817 1155 -320 318 -630 539 -1036 740 -477 235 -942 362 -1475 399 -168
12 -451 12 -595 0z m804 -178 c593 -81 1102 -271 1591 -595 536 -356 967 -832
1264 -1397 472 -898 566 -1988 250 -2912 -243 -707 -717 -1332 -1339 -1764
-462 -321 -909 -508 -1471 -617 -428 -83 -960 -79 -1391 10 -824 169 -1621
633 -2176 1264 -505 576 -796 1201 -904 1945 -24 170 -24 657 0 835 105 757
394 1401 880 1965 490 568 1120 971 1817 1159 224 61 490 108 730 130 25 2
169 2 320 1 207 -3 313 -9 429 -24z"/>
<path d="M3697 7520 c-708 -47 -1379 -293 -1926 -708 -402 -305 -770 -730
-999 -1154 -177 -327 -315 -712 -381 -1059 -49 -256 -55 -332 -56 -654 0 -276
3 -327 24 -465 132 -871 641 -1707 1396 -2294 543 -422 1136 -676 1815 -777
195 -29 581 -36 800 -15 851 81 1599 433 2200 1036 565 565 908 1268 996 2037
21 179 23 553 5 728 -67 648 -298 1264 -670 1783 -263 368 -612 708 -971 947
-491 327 -1070 533 -1640 584 -169 16 -447 21 -593 11z m443 -235 c603 -29
1244 -268 1763 -658 583 -438 990 -1055 1171 -1774 71 -286 99 -516 100 -828
0 -250 -11 -373 -58 -657 l-22 -138 34 -32 c46 -45 115 -144 135 -194 9 -23
19 -70 22 -105 7 -73 4 -71 -54 31 -19 33 -67 96 -106 139 l-71 79 -27 130
c-57 274 -164 543 -276 694 -43 58 -80 92 -171 158 -15 11 -24 37 -35 100 -29
171 -77 287 -168 407 -83 111 -226 206 -392 262 -74 24 -61 30 80 33 l110 3
-50 26 c-53 28 -169 68 -270 93 -135 34 -362 42 -595 21 -51 -5 -49 -3 35 20
97 27 266 56 439 76 127 14 124 19 -39 63 -240 65 -424 120 -478 142 -64 26
-270 134 -265 139 2 2 68 -8 148 -21 159 -27 330 -44 330 -33 0 4 -15 16 -32
27 -18 10 -129 78 -246 151 -220 136 -327 193 -520 277 l-113 49 68 6 c37 4
115 7 173 8 64 1 100 5 95 10 -14 13 -269 116 -388 157 -55 19 -141 39 -193
46 l-95 11 -47 -46 c-26 -26 -50 -47 -54 -47 -3 0 14 37 39 83 96 177 132 293
140 452 l6 110 -77 -73 c-108 -102 -560 -431 -574 -417 -2 2 11 22 31 45 36
43 91 145 102 193 l7 28 -63 -44 c-95 -65 -185 -114 -583 -312 l-361 -180 -8
-53 c-8 -63 -25 -87 -92 -137 -73 -54 -353 -182 -510 -232 -37 -12 -36 -22 15
-131 46 -96 87 -158 148 -224 49 -52 62 -58 62 -28 0 42 60 46 134 8 17 -9 16
-11 -11 -28 -35 -21 -58 -70 -49 -104 13 -52 70 -110 147 -150 l75 -39 47 50
c77 82 216 135 297 113 79 -21 134 -120 147 -261 6 -72 -15 -218 -46 -319
l-19 -60 38 30 c50 40 133 136 164 190 l24 43 7 -49 c3 -27 7 -60 9 -74 7 -45
-14 -141 -45 -202 -17 -33 -32 -58 -34 -56 -2 2 1 23 6 47 5 24 8 45 6 47 -5
6 -178 -109 -220 -146 -86 -75 -169 -220 -209 -365 -31 -115 -31 -373 0 -489
36 -131 110 -268 192 -354 23 -23 33 -45 36 -75 9 -91 36 -265 50 -325 l14
-64 -73 -72 c-97 -96 -147 -179 -262 -436 -128 -286 -232 -465 -319 -549 l-35
-34 -103 58 c-460 256 -869 641 -1143 1075 -74 118 -205 378 -259 515 -74 191
-136 434 -173 679 -13 82 -17 182 -17 386 -1 316 16 460 85 742 160 651 543
1245 1079 1674 432 345 995 585 1570 669 104 15 422 33 510 28 19 -1 91 -4
160 -8z m-1001 -1376 c-30 -42 -100 -85 -160 -98 -52 -11 -112 -5 -106 12 6
19 110 71 187 94 101 30 106 29 79 -8z m2526 -2543 c141 -171 358 -369 535
-486 36 -24 67 -44 68 -46 2 -1 -3 -34 -12 -73 -28 -122 -16 -315 29 -481 8
-30 15 -60 15 -66 0 -15 -120 -156 -219 -257 -81 -83 -233 -219 -316 -281
l-49 -37 -12 33 c-23 67 -93 396 -109 509 l-16 117 70 133 c80 155 158 336
202 474 l31 95 -85 80 c-93 87 -165 179 -220 280 -35 64 -107 241 -107 263 0
6 25 -26 56 -73 31 -46 93 -129 139 -184z m-2531 -19 c39 -122 122 -287 197
-387 33 -45 104 -128 159 -184 l98 -103 32 -104 c17 -57 54 -169 81 -247 56
-163 66 -227 49 -292 -11 -43 -136 -364 -180 -462 -11 -26 -37 -61 -58 -78
-67 -55 -606 -452 -675 -497 -73 -48 -208 -117 -272 -140 -48 -17 -46 -15 81
84 206 159 343 268 343 274 1 4 -11 9 -26 12 -30 7 -60 24 -53 29 53 39 558
466 604 511 56 55 67 72 91 142 18 53 29 110 32 170 5 89 5 91 -42 210 -26 66
-65 171 -87 234 -21 62 -44 123 -50 135 -6 11 -48 60 -94 108 -145 151 -228
300 -260 466 -15 78 -19 212 -6 212 4 0 20 -42 36 -93z"/>
</g>
</svg>
