<?xml version="1.0" encoding="UTF-8"?>
<svg xmlns="http://www.w3.org/2000/svg" width="1024" height="1024" viewBox="0 0 1024 1024">
  <defs>
    <clipPath id="moonClip">
      <circle cx="512" cy="512" r="388"/>
    </clipPath>
  </defs>

  <!-- Outer outline -->
  <circle cx="512" cy="512" r="410" fill="#000000"/>

  <!-- Moon -->
  <circle cx="512" cy="512" r="388" fill="#ffffff"/>

  <!-- Werewolf silhouette -->
  <path d="M 302.5 628.0 L 317.0 620.5 L 330.0 621.5 L 353.0 637.5 L 360.5 645.0 L 365.5 657.0 L 372.0 659.5 L 401.0 646.5 L 436.5 620.0 L 426.5 587.0 L 406.5 557.0 L 401.5 536.0 L 401.5 517.0 L 408.5 492.0 L 421.5 471.0 L 444.0 451.5 L 445.5 460.0 L 447.5 459.0 L 452.5 442.0 L 450.5 420.0 L 433.0 444.5 L 435.5 410.0 L 428.5 386.0 L 422.0 380.5 L 416.0 380.5 L 383.0 395.5 L 372.0 391.5 L 362.5 379.0 L 363.5 373.0 L 370.5 367.0 L 352.0 367.5 L 331.5 336.0 L 334.0 331.5 L 386.0 307.5 L 392.5 300.0 L 395.5 290.0 L 409.0 280.5 L 472.0 250.5 L 490.0 238.5 L 481.0 260.5 L 510.0 242.5 L 543.0 216.5 L 542.5 236.0 L 530.0 271.5 L 555.0 271.5 L 602.0 289.5 L 573.0 290.5 L 574.0 292.5 L 596.0 302.5 L 659.5 341.0 L 616.0 334.5 L 613.5 335.0 L 618.0 339.5 L 648.0 353.5 L 699.5 369.0 L 668.0 373.5 L 642.0 382.5 L 697.0 380.5 L 734.0 390.5 L 715.5 395.0 L 742.0 407.5 L 760.5 427.0 L 769.5 449.0 L 773.5 469.0 L 793.5 489.0 L 802.5 503.0 L 815.5 533.0 L 824.5 566.0 L 834.5 584.0 L 814.5 645.0 L 781.5 703.0 L 757.5 733.0 L 733.0 757.5 L 703.0 781.5 L 673.0 800.5 L 607.0 828.5 L 548.0 840.5 L 476.0 840.5 L 419.5 828.0 L 419.5 778.0 L 474.5 737.0 L 495.5 684.0 L 495.5 665.0 L 480.5 620.0 L 447.5 582.0 L 437.5 561.0 L 433.0 542.5 L 429.5 552.0 L 432.5 576.0 L 445.5 600.0 L 468.5 626.0 L 482.5 669.0 L 482.5 684.0 L 475.0 701.5 L 440.5 705.0 L 456.0 715.5 L 427.0 717.5 L 378.0 711.5 L 334.5 674.0 L 313.5 647.0 L 323.0 646.5 L 325.5 643.0 L 303.0 628.5 L 302.5 628.0 Z M 406.5 306.0 L 420.0 306.5 L 427.0 302.5 L 435.5 293.0 L 433.0 291.5 L 416.0 297.5 L 407.0 305.5 L 406.5 306.0 Z M 665.5 525.0 L 680.5 558.0 L 707.5 587.0 L 677.5 655.0 L 679.5 680.0 L 689.5 719.0 L 692.0 722.5 L 696.0 720.5 L 744.0 680.5 L 748.5 697.0 L 748.0 721.5 L 755.5 699.0 L 754.5 677.0 L 745.5 644.0 L 745.5 620.0 L 749.5 604.0 L 704.0 569.5 L 683.5 549.0 L 666.0 524.5 L 665.5 525.0 Z" fill="#000000" fill-rule="evenodd" clip-path="url(#moonClip)"/>
</svg>
